<svg xmlns="http://www.w3.org/2000/svg" width="45.318" height="45.318"><path d="M22.651 0C14.987 0 8.204 3.829 4.1 9.671l3.088.159 2.324.984-.328.278-1.723-.278-.027.333.629.434-.82.163v.493l-1.695.109 1.285 1.203.219.984-.574.301-1.807-1.477v-.684l.439-.684-.328-.41-1.971 1.313-.582-.052c-.191.4-.369.808-.539 1.221l.957.116.912 1.039-.227.302-.713-.712-.326.355.555.732-.119 1.377-1.457-.002-.074 1.111 1.232.748.426.564-.646.174-1.826-1.392a23.071 23.071 0 00-.285 2.002l.773.811.125 1.269-.838.699-.152.057c.047 1.627.264 3.209.635 4.732a22.645 22.645 0 00.89 2.814l.918-.357.014 1.776-.313.028c.074.156.152.312.229.467h.309l-.082.287-.094-.029c.043.082.082.164.125.244a21.612 21.612 0 00.863 1.477l.342-.024v.399h.365l.895-1.269h1.244l1.057.637-.496.484-.59-.119.039.799.311.188 1.113.084.238-2.015.584.026.646 1.109.074 1.605.982.842.264 1.078-.637 1.456-.83.78a22.691 22.691 0 002.43 1.582l.748-.104.637-.437.092-1.397.727-.043.012.894.396-.078.268.479-.73.414-.727.322-.598.392a22.516 22.516 0 0010.295 2.484c3.38 0 6.589-.75 9.474-2.085l-1.125-.982-1.014-1.778.144-1.718-.769-1.021.313-1.73-.457-.129v-3.756s-1.274-.968-1.349-.968c-.073 0-.676-.163-.676-.163l-.129-.711-1.658-2.079.164-.747.055-1.223 1.146-.803-.162-1.365-1.677-.127-1.313-1.496-.931-.252-.602-.11.074-.547-.768-.109v.311l-1.914-.475-.771-1.178.314-.572-1.213-1.77-.207-1.294h-.494l.166 1.257.836 1.295-.09.512-.711-.109-.875-1.492v-1.735l-.91-.438v-1.932l1.695-2.061-.111-1.231.475-.337-.562-.529.035-.93-.674-.602h-1.879l-.309.328-2.244-.018-.82-.693.639-.455h1.641v-.307l-.766-.113.494-.383 1.074-.165 1.604-1.093h2.771l1.516.455.51.292.455.036.676-.656 2.188-.019.492.274.93.2.072.364 1.477.055-.199-.474-1.313-.036.311-.292-.108-.347h-1.188l1.297-.966h1.24l.58.802.969.055.582-.565.439.219-.803.784-1.059.019c.057 0 .092.766.092.766l1.348-.036.146-.365.93-.055.109-.547-.546-.092.183-.492.42-.127 1.457.072-.803.73.129.564.84.128-.058-1.022.804-.418 1.424-.164 2.059.912v.783l.658.164-.328.621h-.93l-.275.71-2.127-.501 1.67-.891-.637-.541-1.441.183-.125.13-.005-.002-.025.031-.412.431-.688.058.057.342.238.099-.01.113-.559.079-.039.324-.533.027-.096-.643-.957.291-1.957 1.145.221.807.547.355 1.092.151v1.243l.506-.081.467-.972 1.162-.368V7.861l.646-.488 1.564.369-.109.986h.418l1.15-.565.055 1.295.838.51-.037.766-.801.273.055.254.965.439-.018.529-.281.023c0-.01-.004-.014-.004-.014l-1.217-.377-.053-.39.354-.245v-.357l-.383-.096-.097.329-.672.104-.065-.023v.033l-.231.035-.191-.383-.219-.096h-.48l-.217.178v.397l.41.136.404.057-.091.04-.368.409-.164-.205-.355-.094-.973.914.127.104-1.435.795-1.351 1.404-.092.625-1.354.889-.668.674.073 1.35-.93-.433.006-.79-2.588.001-1.339.679-.584 1.072-.229.852.375.825 1.057.128 1.678-1.121.148.557-.512.967 1.277.218.129 1.973 1.75.297 1.11-1.285 1.351.274.475.658 1.295-.075.037-.384.709.348.805 1.257 1.385.02.51.895.072 1.094 1.533.584 1.932.019.566.929.855.274-.164.764-.938 1.193-.274 2.641-.847.67-1.26-.036-.42.729.312 1.369-1.367 1.75-.438.803-1.303.627-.859.13-.034.364.602.172-.072.393-.537.521.326.412.648.018-.039.501-.172.49-.058.4.548.461c7.133-3.825 11.993-11.348 11.993-19.989C45.311 10.166 35.145 0 22.651 0zM10.28 33.68h-.986v-1.039l-.564.054-.529.565-1.459.092-.018-.674h.438l-.018-.33-.676-.354-1.203-.174-.557-.685.83-.83.584.348-.047.636.611-.017.658-.348 2.352 1.068.09 1.266h.494v.422zm6.686-23.912l-.092.574h-.41c-.047 0-.092-.631-.092-.666l.594.092zm15.739 3.2l-.457.038.024-.317.203-.254.274.215-.044.318zm1.6-.561l-.312.027-.063.301-.24.15-.385.031c-.015-.09-.021-.16-.021-.16h-.15v-.322h.629l.131-.336.25-.006.285.061-.124.254z"/></svg>