<svg xmlns="http://www.w3.org/2000/svg" viewBox="0 0 473.68 473.68"><circle cx="236.85" cy="236.849" r="236.83" fill="#fff"/><path d="M460.143 157.873H314.218c6.339 50.593 6.376 106.339.123 156.995h146.113a236.303 236.303 0 0013.219-78.026c.004-27.703-4.794-54.269-13.53-78.969z" fill="#2b479d"/><path d="M314.218 157.873H460.14a1.618 1.618 0 00-.075-.206C429.756 72.2 351.785 9.319 258.105.972c36.256 19.872 46.846 82.832 56.113 156.901z" fill="#efecec"/><path d="M258.113 472.697c93.848-8.362 171.927-71.46 202.12-157.156.079-.228.146-.453.228-.673H314.345c-9.196 74.47-19.831 137.874-56.232 157.829z" fill="#e63026"/><path d="M0 236.841c0 27.348 4.697 53.588 13.219 78.026h313.313c6.26-50.66 6.215-106.402-.116-156.995H13.534C4.798 182.573 0 209.139 0 236.841z" fill="#3757a6"/><path d="M13.608 157.668a3.348 3.348 0 01-.075.206h312.883C317.142 83.804 294.36 20.845 258.109.973c-7.012-.621-14.102-.972-21.274-.972C133.806 0 46.191 65.801 13.608 157.668z" fill="#efefef"/><path d="M326.532 314.867H13.219c.079.221.153.445.228.673C45.9 407.642 133.641 473.676 236.835 473.676c7.173 0 14.263-.352 21.274-.98 36.405-19.954 59.227-83.358 68.423-157.829z" fill="#e73b36"/></svg>